<svg xmlns="http://www.w3.org/2000/svg" viewBox="0 0 100 100" width="256" height="256" role="img" aria-label="MediaSpecter">
  <defs>
    <linearGradient id="tileBg" x1="0" y1="0" x2="1" y2="1">
      <stop offset="0" stop-color="#13201C"></stop>
      <stop offset="1" stop-color="#070B0A"></stop>
    </linearGradient>
    <linearGradient id="msFillT" x1="0" y1="0" x2="0" y2="1">
      <stop offset="0" stop-color="#54E2A2"></stop>
      <stop offset="1" stop-color="#1FB9AD"></stop>
    </linearGradient>
  </defs>
  <rect width="100" height="100" rx="24" fill="url(#tileBg)"></rect>
  <rect x="0.5" y="0.5" width="99" height="99" rx="23.5" fill="none" stroke="#3ECF8E" stroke-opacity="0.16"></rect>
  <g transform="translate(50 50) scale(0.62) translate(-50 -53.5)">
    <path d="M23 46A27 27 0 0 1 77 46L77 80A9 8 0 0 1 59 80A9 8 0 0 1 41 80A9 8 0 0 1 23 80Z" fill="url(#msFillT)"></path>
    <circle cx="40" cy="43" r="4.6" fill="#0B1310"></circle>
    <circle cx="60" cy="43" r="4.6" fill="#0B1310"></circle>
  </g>
</svg>